<mxfile host="app.diagrams.net" modified="2024-05-24T11:42:11.435Z" agent="Mozilla/5.0 (Windows NT 10.0; Win64; x64) AppleWebKit/537.36 (KHTML, like Gecko) Chrome/121.0.0.0 Safari/537.36" etag="U5dELiFJmsAgwzM8yn4h" version="24.4.7" type="device">
  <diagram name="PÃ¡gina-1" id="gYaZ_Khbz22FBuSQRuAg">
    <mxGraphModel dx="1434" dy="750" grid="1" gridSize="10" guides="1" tooltips="1" connect="1" arrows="1" fold="1" page="0" pageScale="1" pageWidth="827" pageHeight="1169" math="0" shadow="0">
      <root>
        <mxCell id="0" />
        <mxCell id="1" parent="0" />
        <mxCell id="Cf1Uo2QyaFybkROw6QZq-2" value="&lt;div style=&quot;text-align: justify;&quot;&gt;&lt;br&gt;&lt;/div&gt;&lt;div style=&quot;text-align: justify;&quot;&gt;&lt;br&gt;&lt;/div&gt;&lt;div style=&quot;text-align: justify;&quot;&gt;&lt;br&gt;&lt;/div&gt;&lt;div style=&quot;text-align: justify;&quot;&gt;&lt;br&gt;&lt;/div&gt;&lt;div style=&quot;text-align: justify;&quot;&gt;&lt;br&gt;&lt;/div&gt;&lt;div style=&quot;text-align: justify;&quot;&gt;&lt;br&gt;&lt;/div&gt;&lt;div style=&quot;text-align: justify;&quot;&gt;&lt;br&gt;&lt;/div&gt;&lt;div style=&quot;text-align: justify;&quot;&gt;&lt;br&gt;&lt;/div&gt;&lt;div style=&quot;text-align: justify;&quot;&gt;&lt;br&gt;&lt;/div&gt;&lt;div style=&quot;text-align: justify;&quot;&gt;&lt;br&gt;&lt;/div&gt;&lt;div style=&quot;text-align: justify;&quot;&gt;&lt;br&gt;&lt;/div&gt;&lt;div style=&quot;text-align: justify;&quot;&gt;&lt;br&gt;&lt;/div&gt;&lt;div style=&quot;text-align: justify;&quot;&gt;&lt;br&gt;&lt;/div&gt;&lt;div style=&quot;text-align: justify;&quot;&gt;&lt;br&gt;&lt;/div&gt;&lt;div style=&quot;text-align: justify; font-size: 20px;&quot;&gt;&lt;font face=&quot;Lucida Console&quot;&gt;FORT CAMISAS&lt;/font&gt;&lt;/div&gt;" style="whiteSpace=wrap;html=1;aspect=fixed;" vertex="1" parent="1">
          <mxGeometry x="395" y="140" width="250" height="250" as="geometry" />
        </mxCell>
        <mxCell id="Cf1Uo2QyaFybkROw6QZq-3" value="" style="shape=document;whiteSpace=wrap;html=1;boundedLbl=1;fillColor=#e3c800;fontColor=#000000;strokeColor=none;" vertex="1" parent="1">
          <mxGeometry x="460" y="170" width="120" height="80" as="geometry" />
        </mxCell>
        <mxCell id="Cf1Uo2QyaFybkROw6QZq-4" value="" style="shape=tape;whiteSpace=wrap;html=1;fillColor=#0050ef;fontColor=#ffffff;strokeColor=none;" vertex="1" parent="1">
          <mxGeometry x="460" y="192.5" width="120" height="145" as="geometry" />
        </mxCell>
        <mxCell id="Cf1Uo2QyaFybkROw6QZq-5" value="" style="shape=document;whiteSpace=wrap;html=1;boundedLbl=1;rotation=-180;fillColor=#e3c800;fontColor=#000000;strokeColor=none;" vertex="1" parent="1">
          <mxGeometry x="460" y="280" width="120" height="60" as="geometry" />
        </mxCell>
        <mxCell id="Cf1Uo2QyaFybkROw6QZq-6" value="" style="rounded=0;whiteSpace=wrap;html=1;fillColor=#e3c800;fontColor=#000000;strokeColor=none;" vertex="1" parent="1">
          <mxGeometry x="570" y="170" width="70" height="30" as="geometry" />
        </mxCell>
        <mxCell id="Cf1Uo2QyaFybkROw6QZq-7" value="" style="rounded=0;whiteSpace=wrap;html=1;fillColor=#e3c800;fontColor=#000000;strokeColor=none;" vertex="1" parent="1">
          <mxGeometry x="400" y="170" width="70" height="30" as="geometry" />
        </mxCell>
        <mxCell id="Cf1Uo2QyaFybkROw6QZq-8" value="" style="shape=xor;whiteSpace=wrap;html=1;rotation=90;fillColor=#FFE100;fontColor=#000000;strokeColor=#B09500;" vertex="1" parent="1">
          <mxGeometry x="505" y="160" width="30" height="50" as="geometry" />
        </mxCell>
      </root>
    </mxGraphModel>
  </diagram>
</mxfile>
